<?xml version="1.0" encoding="UTF-8"?>
<svg width="163" height="31.000000000000004" 
viewBox="0 0 163 31.000000000000004" 
preserveAspectRatio="xMinYMin"
xmlns:xlink="http://www.w3.org/1999/xlink"
xmlns="http://www.w3.org/2000/svg">
<!-- Generated by PQINA - https://pqina.nl/ -->
<title></title>
<g transform="rotate(NaN 81.5 15.500000000000002) translate(81.5 15.500000000000002) scale(NaN) translate(-81.5 -15.500000000000002) translate(0 1.7763568394002505e-15)">
<g transform="scale(1 1) translate(0 0)">
<svg viewBox="0 0 163 31" fill="none" xmlns="http://www.w3.org/2000/svg" width="163" height="31" style="overflow: visible;">
 <path d="M24.4188 13.5362C23.9641 13.9772 23.6158 14.5095 23.3988 15.095C23.1819 15.6806 23.1016 16.3051 23.1636 16.924L23.142 16.9032C23.2058 17.6317 23.1039 18.3649 22.8434 19.0515C22.5829 19.7381 22.17 20.3617 21.6337 20.8787C21.0973 21.3956 20.4504 21.7936 19.738 22.0447C19.0256 22.2958 18.265 22.394 17.5091 22.3325L17.5307 22.3533C16.6266 22.2722 15.7185 22.4618 14.9303 22.8964C14.1421 23.3309 13.5121 23.9892 13.1263 24.7815C12.7405 25.5737 12.6175 26.4614 12.7743 27.3235C12.931 28.1856 13.3598 28.9801 14.0022 29.5986C14.6445 30.2172 15.4692 30.6298 16.3637 30.7801C17.2583 30.9304 18.1791 30.8111 19.0008 30.4385C19.8224 30.0659 20.5048 29.4581 20.9549 28.698C21.405 27.9379 21.601 27.0624 21.516 26.1911L21.5388 26.2119C21.475 25.4834 21.5769 24.7502 21.8374 24.0636C22.0979 23.3769 22.5108 22.7534 23.0471 22.2364C23.5835 21.7194 24.2304 21.3215 24.9428 21.0704C25.6552 20.8193 26.4159 20.7211 27.1717 20.7826L27.1489 20.7618C27.8874 20.8258 28.6308 20.7091 29.3101 20.4224C29.9894 20.1358 30.5826 19.6886 31.0348 19.1221C31.487 18.5557 31.7836 17.8883 31.8969 17.182C32.0103 16.4757 31.9369 15.7532 31.6834 15.0815C31.43 14.4098 31.0047 13.8107 30.4471 13.3396C29.8894 12.8685 29.2174 12.5407 28.4933 12.3866C27.7692 12.2325 27.0165 12.2571 26.3049 12.458C25.5932 12.659 24.9458 13.0298 24.4224 13.5362H24.4188Z" fill="#6366F1"></path>
 <path d="M15.5665 19.6259L15.5437 19.6051C16.1861 19.6675 16.8349 19.5915 17.4431 19.3826C18.0513 19.1737 18.6037 18.8372 19.0604 18.3973C19.5171 17.9574 19.8667 17.4252 20.0839 16.8392C20.3011 16.2531 20.3804 15.6278 20.3162 15.0086L20.339 15.0294C20.2752 14.3009 20.3771 13.5678 20.6376 12.8811C20.8981 12.1945 21.311 11.5709 21.8473 11.054C22.3837 10.537 23.0306 10.1391 23.743 9.88797C24.4554 9.63687 25.216 9.53864 25.9719 9.60013L25.9491 9.57932C26.8533 9.66116 27.7616 9.47217 28.5503 9.03812C29.339 8.60408 29.9695 7.9461 30.3559 7.15395C30.7424 6.3618 30.8659 5.47404 30.7096 4.61175C30.5533 3.74947 30.1249 2.95464 29.4827 2.33567C28.8405 1.71671 28.0159 1.30375 27.1212 1.15312C26.2266 1.00249 25.3056 1.12153 24.4837 1.49399C23.6619 1.86645 22.9792 2.4742 22.5289 3.23436C22.0786 3.99451 21.8825 4.87005 21.9674 5.74156L21.9458 5.71959C22.0098 6.44815 21.9081 7.18139 21.6476 7.86812C21.3872 8.55485 20.9743 9.17849 20.4379 9.69551C19.9015 10.2125 19.2545 10.6104 18.542 10.8615C17.8295 11.1125 17.0688 11.2106 16.3129 11.1489L16.3345 11.1709C15.6921 11.1085 15.0433 11.1845 14.4351 11.3933C13.8269 11.6022 13.2745 11.9388 12.8178 12.3787C12.3611 12.8186 12.0115 13.3508 11.7943 13.9368C11.5771 14.5229 11.4978 15.1481 11.562 15.7674L11.5404 15.7466C11.604 16.475 11.502 17.2081 11.2414 17.8946C10.9808 18.5812 10.5679 19.2046 10.0316 19.7216C9.49531 20.2385 8.84845 20.6364 8.13617 20.8876C7.42388 21.1388 6.66332 21.2371 5.90753 21.1759L5.92913 21.1967C5.02494 21.1148 4.11657 21.3038 3.32791 21.7379C2.53925 22.1719 1.9087 22.8299 1.52227 23.622C1.13585 24.4142 1.01235 25.3019 1.16863 26.1642C1.3249 27.0265 1.75335 27.8213 2.39552 28.4403C3.0377 29.0593 3.86233 29.4722 4.75696 29.6229C5.65158 29.7735 6.57263 29.6545 7.39449 29.282C8.21635 28.9095 8.89899 28.3018 9.34931 27.5416C9.79964 26.7815 9.99572 25.9059 9.9108 25.0344L9.9336 25.0552C9.8698 24.3267 9.97171 23.5936 10.2322 22.9069C10.4927 22.2203 10.9056 21.5967 11.4419 21.0798C11.9783 20.5628 12.6252 20.1649 13.3376 19.9138C14.05 19.6627 14.8107 19.5644 15.5665 19.6259V19.6259Z" fill="#6366F1"></path>
 <path d="M7.524 17.3045C7.97883 16.8636 8.32706 16.3313 8.54384 15.7457C8.76061 15.16 8.84057 14.5355 8.77802 13.9167L8.80082 13.9375C8.73697 13.2088 8.83893 12.4754 9.09959 11.7886C9.36024 11.1018 9.77331 10.4781 10.3099 9.96107C10.8466 9.44406 11.4938 9.04619 12.2065 8.79524C12.9192 8.5443 13.6801 8.44634 14.4361 8.50819L14.4133 8.48738C15.3172 8.56899 16.2252 8.3799 17.0135 7.94588C17.8018 7.51187 18.432 6.85405 18.8182 6.06215C19.2044 5.27025 19.3278 4.38281 19.1715 3.52084C19.0152 2.65888 18.5869 1.86435 17.945 1.24561C17.303 0.626877 16.4787 0.214048 15.5844 0.0634253C14.6901 -0.0871976 13.7694 0.0317181 12.9478 0.403954C12.1262 0.77619 11.4437 1.38363 10.9934 2.14343C10.5432 2.90323 10.347 3.77841 10.4317 4.64962L10.4101 4.6288C10.4739 5.35732 10.3719 6.09048 10.1114 6.77711C9.8509 7.46374 9.43806 8.0873 8.90171 8.60427C8.36535 9.12124 7.7184 9.51916 7.00602 9.77027C6.29364 10.0214 5.53299 10.1196 4.77716 10.0581L4.79876 10.0789C4.06023 10.0151 3.31693 10.132 2.63774 10.4187C1.95855 10.7055 1.36545 11.1528 0.91339 11.7193C0.46133 12.2858 0.16494 12.9532 0.0516879 13.6595C-0.0615644 14.3658 0.0119837 15.0882 0.265517 15.7598C0.519051 16.4314 0.944368 17.0305 1.50205 17.5015C2.05974 17.9725 2.73175 18.3002 3.45582 18.4543C4.17988 18.6083 4.93257 18.5837 5.64413 18.3827C6.3557 18.1817 7.00312 17.8108 7.5264 17.3045H7.524Z" fill="#6366F1"></path>
 <path d="M44.6973 5.76819H48.2613V22.4852H44.6973V5.76819Z" fill="#475569"></path>
 <path d="M50.2791 16.7611C50.2741 15.5597 50.6391 14.384 51.328 13.3828C52.0168 12.3815 52.9984 11.5999 54.1485 11.1368C55.2986 10.6737 56.5654 10.5501 57.7885 10.7815C59.0115 11.0129 60.1358 11.589 61.0189 12.4368C61.902 13.2846 62.5042 14.3659 62.7492 15.5438C62.9942 16.7217 62.871 17.9432 62.3952 19.0536C61.9194 20.164 61.1124 21.1132 60.0764 21.7812C59.0404 22.4491 57.822 22.8057 56.5756 22.8057C55.7483 22.8148 54.9273 22.6648 54.1608 22.3646C53.3942 22.0643 52.6975 21.6198 52.1112 21.057C51.525 20.4942 51.061 19.8244 50.7464 19.0868C50.4319 18.3492 50.273 17.5585 50.2791 16.7611V16.7611ZM59.3081 16.7611C59.2932 16.2432 59.1203 15.7411 58.811 15.3175C58.5016 14.8939 58.0696 14.5675 57.5689 14.3792C57.0682 14.191 56.5211 14.1492 55.9958 14.259C55.4706 14.3688 54.9906 14.6255 54.6159 14.9968C54.2411 15.3682 53.9883 15.8377 53.8889 16.3468C53.7896 16.8559 53.8481 17.3819 54.0572 17.8591C54.2664 18.3364 54.6168 18.7435 55.0647 19.0298C55.5126 19.3161 56.0382 19.4688 56.5756 19.4688C56.9437 19.4782 57.3098 19.4141 57.6509 19.2804C57.9919 19.1467 58.3006 18.9463 58.5573 18.6919C58.814 18.4375 59.0133 18.1346 59.1425 17.8023C59.2717 17.47 59.3281 17.1154 59.3081 16.7611V16.7611Z" fill="#475569"></path>
 <path d="M77.0768 11.0356V21.9081C77.0768 25.7551 73.964 27.3814 70.8043 27.3814C69.6918 27.4616 68.5779 27.245 67.5847 26.7553C66.5915 26.2657 65.7574 25.5218 65.1738 24.6054L68.2147 22.9109C68.46 23.3886 68.8508 23.7827 69.3348 24.0405C69.8188 24.2983 70.373 24.4074 70.9231 24.3533C71.2747 24.4002 71.6328 24.3704 71.9708 24.2659C72.3088 24.1615 72.6182 23.9851 72.8759 23.7499C73.1337 23.5147 73.3333 23.2266 73.4599 22.907C73.5866 22.5874 73.637 22.2444 73.6076 21.9035V20.8567C73.1902 21.3489 72.659 21.74 72.0565 21.9985C71.454 22.257 70.7971 22.3758 70.1383 22.3453C68.5709 22.2977 67.0841 21.664 65.9928 20.5785C64.9016 19.4929 64.2913 18.0407 64.2913 16.5291C64.2913 15.0176 64.9016 13.5653 65.9928 12.4798C67.0841 11.3942 68.5709 10.7606 70.1383 10.7129C70.7971 10.6825 71.454 10.8013 72.0565 11.0598C72.659 11.3183 73.1902 11.7093 73.6076 12.2015V11.0333L77.0768 11.0356ZM73.6088 16.5309C73.6327 15.9772 73.4842 15.4294 73.1824 14.9578C72.8806 14.4862 72.4393 14.1124 71.9152 13.8847C71.3911 13.6569 70.8083 13.5855 70.2418 13.6796C69.6753 13.7738 69.151 14.0292 68.7363 14.413C68.3217 14.7968 68.0357 15.2914 67.9152 15.8332C67.7947 16.375 67.8451 16.9392 68.0601 17.4531C68.275 17.967 68.6446 18.4071 69.1213 18.7169C69.5979 19.0266 70.1598 19.1918 70.7347 19.1911C71.1092 19.2163 71.485 19.1656 71.8379 19.0424C72.1908 18.9191 72.513 18.7259 72.7838 18.4753C73.0545 18.2247 73.2678 17.9222 73.4099 17.5873C73.552 17.2524 73.6198 16.8925 73.6088 16.5309V16.5309Z" fill="#475569"></path>
 <path d="M79.0948 16.7611C79.0898 15.5597 79.4549 14.384 80.1437 13.3828C80.8325 12.3815 81.8142 11.5999 82.9643 11.1368C84.1143 10.6737 85.3811 10.5501 86.6042 10.7815C87.8273 11.0129 88.9515 11.589 89.8347 12.4368C90.7178 13.2846 91.3199 14.3659 91.5649 15.5438C91.8099 16.7217 91.6867 17.9432 91.2109 19.0536C90.7351 20.164 89.9281 21.1132 88.8921 21.7812C87.8561 22.4491 86.6377 22.8057 85.3913 22.8057C84.564 22.8148 83.743 22.6648 82.9765 22.3646C82.21 22.0643 81.5132 21.6198 80.927 21.057C80.3407 20.4942 79.8768 19.8244 79.5622 19.0868C79.2476 18.3492 79.0887 17.5585 79.0948 16.7611V16.7611ZM88.1238 16.7611C88.1089 16.2432 87.936 15.7411 87.6267 15.3175C87.3174 14.8939 86.8854 14.5675 86.3846 14.3792C85.8839 14.191 85.3368 14.1492 84.8115 14.259C84.2863 14.3688 83.8063 14.6255 83.4316 14.9968C83.0569 15.3682 82.804 15.8377 82.7047 16.3468C82.6053 16.8559 82.6638 17.3819 82.873 17.8591C83.0821 18.3364 83.4325 18.7435 83.8804 19.0298C84.3283 19.3161 84.8539 19.4688 85.3913 19.4688C85.7594 19.4782 86.1255 19.4141 86.4666 19.2804C86.8077 19.1467 87.1163 18.9463 87.373 18.6919C87.6298 18.4375 87.829 18.1346 87.9582 17.8023C88.0874 17.47 88.1438 17.1154 88.1238 16.7611Z" fill="#475569"></path>
 <path d="M93.3508 7.96685C93.3508 7.55919 93.4762 7.16069 93.7112 6.82174C93.9461 6.48278 94.2801 6.2186 94.6709 6.0626C95.0616 5.90659 95.4916 5.86578 95.9064 5.94531C96.3212 6.02484 96.7022 6.22114 97.0013 6.5094C97.3004 6.79766 97.5041 7.16491 97.5866 7.56473C97.6691 7.96456 97.6267 8.37899 97.4649 8.75561C97.303 9.13224 97.0289 9.45414 96.6773 9.68062C96.3256 9.9071 95.9122 10.028 95.4892 10.028C94.9238 10.0226 94.3831 9.80367 93.9833 9.4183C93.5835 9.03293 93.3564 8.51181 93.3508 7.96685V7.96685ZM93.7108 11.0354H97.276V22.4862H93.706L93.7108 11.0354Z" fill="#475569"></path>
 <path d="M112.664 16.761C112.706 17.5177 112.591 18.2749 112.328 18.9889C112.064 19.7029 111.657 20.3597 111.129 20.9214C110.601 21.4831 109.964 21.9388 109.253 22.2622C108.542 22.5855 107.771 22.7702 106.986 22.8056C106.325 22.8403 105.665 22.733 105.053 22.4913C104.441 22.2496 103.892 21.8797 103.447 21.4084V27.0655H99.8829V11.0356H103.447V12.1113C103.893 11.6402 104.441 11.2706 105.053 11.0292C105.665 10.7877 106.325 10.6805 106.986 10.7152C107.771 10.7504 108.542 10.935 109.253 11.2584C109.964 11.5818 110.602 12.0376 111.13 12.5995C111.658 13.1614 112.065 13.8183 112.328 14.5325C112.592 15.2467 112.706 16.0041 112.664 16.761V16.761ZM109.1 16.761C109.086 16.2251 108.909 15.705 108.59 15.2659C108.271 14.8268 107.824 14.4882 107.307 14.2924C106.789 14.0966 106.223 14.0524 105.679 14.1652C105.135 14.278 104.638 14.5429 104.25 14.9267C103.861 15.3105 103.599 15.7962 103.496 16.3229C103.393 16.8496 103.453 17.394 103.669 17.888C103.885 18.382 104.247 18.8035 104.711 19.0999C105.174 19.3963 105.718 19.5543 106.274 19.5543C106.656 19.5707 107.037 19.5091 107.393 19.3735C107.748 19.238 108.07 19.0316 108.336 18.7678C108.603 18.5041 108.809 18.189 108.941 17.8431C109.073 17.4972 109.127 17.1285 109.1 16.761V16.761Z" fill="#475569"></path>
 <path d="M123.663 19.0501C123.663 21.6837 121.288 22.8057 118.722 22.8057C117.686 22.8962 116.645 22.6849 115.734 22.1991C114.824 21.7133 114.085 20.9753 113.614 20.0806L116.702 18.3862C116.827 18.7997 117.095 19.1595 117.462 19.4053C117.829 19.6512 118.272 19.7683 118.718 19.7371C119.572 19.7371 120.001 19.485 120.001 19.0281C120.001 17.7673 114.155 18.4324 114.155 14.4709C114.155 11.9737 116.342 10.7153 118.812 10.7153C119.741 10.6869 120.661 10.8993 121.476 11.3302C122.291 11.7611 122.97 12.3947 123.445 13.1651L120.404 14.745C120.27 14.4451 120.048 14.1896 119.765 14.0105C119.482 13.8313 119.151 13.7364 118.812 13.7376C118.194 13.7376 117.814 13.9689 117.814 14.3784C117.819 15.6842 123.663 14.8133 123.663 19.0501Z" fill="#475569"></path>
 <path d="M136.682 11.0355V22.4863H133.118V21.4095C132.706 21.8846 132.184 22.259 131.594 22.5019C131.004 22.7448 130.362 22.8493 129.721 22.8067C127.321 22.8067 125.281 21.1585 125.281 18.0645V11.0355H128.845V17.5613C128.816 17.834 128.848 18.1097 128.94 18.3693C129.032 18.6288 129.181 18.8658 129.378 19.064C129.575 19.2622 129.814 19.4166 130.079 19.5167C130.344 19.6167 130.628 19.6599 130.912 19.6433C132.219 19.6433 133.121 18.9111 133.121 17.2849V11.039L136.682 11.0355Z" fill="#475569"></path>
 <path d="M157.119 15.455V22.4851H153.555V15.7523C153.555 14.6072 152.985 13.8751 151.845 13.8751C150.657 13.8751 149.991 14.6766 149.991 16.0276V22.4851H146.428V15.7523C146.428 14.6072 145.858 13.8751 144.716 13.8751C143.528 13.8751 142.864 14.6766 142.864 16.0276V22.4851H139.3V11.0343H142.864V12.0869C143.233 11.6199 143.718 11.2496 144.274 11.0098C144.83 10.77 145.44 10.6683 146.047 10.714C146.657 10.6852 147.264 10.8092 147.81 11.074C148.355 11.3387 148.82 11.7351 149.159 12.2245C149.554 11.7125 150.077 11.3054 150.68 11.0412C151.282 10.777 151.944 10.6644 152.604 10.714C155.332 10.7151 157.119 12.5923 157.119 15.455Z" fill="#475569"></path>
 <path d="M160.132 10.9649C161.593 10.9649 162.777 9.82361 162.777 8.4157C162.777 7.00779 161.593 5.86646 160.132 5.86646C158.672 5.86646 157.487 7.00779 157.487 8.4157C157.487 9.82361 158.672 10.9649 160.132 10.9649Z" fill="#475569"></path>
</svg>
</g>
</g>
</svg>