<?xml version="1.0" encoding="UTF-8"?>
<svg width="110" height="29.999999999999996" 
viewBox="0 0 110 29.999999999999996" 
preserveAspectRatio="xMinYMin"
xmlns:xlink="http://www.w3.org/1999/xlink"
xmlns="http://www.w3.org/2000/svg">
<!-- Generated by PQINA - https://pqina.nl/ -->
<title></title>
<g transform="rotate(NaN 55 14.999999999999998) translate(55 14.999999999999998) scale(NaN) translate(-55 -14.999999999999998) translate(0 -1.7763568394002505e-15)">
<g transform="scale(1 1) translate(0 0)">
<svg width="110" height="30" viewBox="0 0 110 30" fill="none" xmlns="http://www.w3.org/2000/svg" style="overflow: visible;">
<path d="M31.8992 9.84519H34.5509V20.5843H31.8992V9.84519ZM35.6083 16.5448C35.6083 13.8848 37.2605 12.2904 39.7387 12.2904C42.217 12.2904 43.8692 13.8848 43.8692 16.5448C43.8692 19.2048 42.2748 20.8156 39.7387 20.8156C37.2026 20.8156 35.6083 19.2626 35.6083 16.5448ZM41.2422 16.5448C41.2422 15.0826 40.6722 14.2235 39.7635 14.2235C38.8548 14.2235 38.2931 15.0495 38.2931 16.5448C38.2931 18.04 38.8548 18.8578 39.7635 18.8578C40.6722 18.8578 41.2587 18.04 41.2587 16.553L41.2422 16.5448ZM44.9266 21.1378H47.4874C47.604 21.4135 47.8076 21.6435 48.0672 21.7926C48.3267 21.9418 48.6279 22.002 48.9248 21.9639C49.9409 21.9639 50.4696 21.4187 50.4696 20.6091V19.1222H50.4779C50.259 19.5852 49.9051 19.971 49.4629 20.2291C49.0205 20.4872 48.5104 20.6052 47.9996 20.5678C46.0583 20.5678 44.7696 19.0891 44.7696 16.5448C44.7696 14.0004 46.0005 12.4143 48.074 12.4143C48.5978 12.3863 49.1175 12.5214 49.5612 12.801C50.0051 13.0806 50.3513 13.491 50.5522 13.9756H50.4779V12.4804H53.1048V20.5265C53.1048 22.4678 51.3866 23.6822 48.8587 23.6822C46.5622 23.6739 45.0918 22.6248 44.9431 21.1461L44.9266 21.1378ZM50.4779 16.5448C50.4779 15.2478 49.8831 14.43 48.9413 14.43C47.9996 14.43 47.4213 15.2561 47.4213 16.5448C47.4213 17.8335 47.9913 18.5935 48.9413 18.5935C49.8913 18.5935 50.4779 17.8913 50.4779 16.5448ZM54.154 16.5448C54.154 13.8848 55.8061 12.2904 58.2844 12.2904C60.7626 12.2904 62.4148 13.8848 62.4148 16.5448C62.4148 19.2048 60.8122 20.8156 58.2844 20.8156C55.7566 20.8156 54.1705 19.2626 54.1705 16.5448H54.154ZM59.7879 16.5448C59.7879 15.0826 59.2096 14.2235 58.3092 14.2235C57.4087 14.2235 56.8387 15.0495 56.8387 16.5448C56.8387 18.04 57.4005 18.8578 58.3092 18.8578C59.2179 18.8578 59.8044 18.04 59.8044 16.553L59.7879 16.5448ZM63.4887 10.5226C63.4772 10.2525 63.5467 9.98505 63.6884 9.75482C63.8301 9.52451 64.0374 9.34194 64.2838 9.2305C64.5301 9.11898 64.8041 9.08379 65.0706 9.12939C65.3371 9.17491 65.5839 9.29915 65.7791 9.48609C65.9744 9.67312 66.1093 9.91417 66.1665 10.1784C66.2236 10.4427 66.2004 10.718 66.0997 10.9689C65.9991 11.2199 65.8257 11.435 65.6019 11.5866C65.378 11.7382 65.1139 11.8193 64.8435 11.8195C64.6708 11.8239 64.4988 11.7939 64.3377 11.7314C64.1766 11.6688 64.0295 11.5748 63.905 11.4549C63.7805 11.335 63.6811 11.1916 63.6125 11.0329C63.5438 10.8743 63.5074 10.7037 63.5053 10.5308L63.4887 10.5226ZM63.4887 12.4722H66.1735V20.6174H63.53L63.4887 12.4722ZM75.8305 16.5448C75.8305 19.1965 74.6409 20.733 72.617 20.733C72.0989 20.765 71.5834 20.6371 71.1402 20.3668C70.697 20.0964 70.3475 19.6966 70.1387 19.2213H70.0892V23.2361H67.4374V12.4969H70.0726V13.9508H70.1222C70.3238 13.4662 70.6699 13.0554 71.1134 12.7745C71.5569 12.4936 72.0762 12.3563 72.6005 12.3813C74.6822 12.3648 75.88 13.893 75.88 16.553L75.8305 16.5448ZM73.1292 16.5448C73.1292 15.2561 72.5261 14.4217 71.5926 14.4217C70.6592 14.4217 70.0726 15.2478 70.0644 16.5448C70.0561 17.8417 70.6592 18.6595 71.5926 18.6595C72.5261 18.6595 73.1787 17.8913 73.1787 16.553L73.1292 16.5448ZM80.3574 12.2822C82.5796 12.2822 83.9592 13.3313 83.9757 15.0165H81.5553C81.5553 14.43 81.0679 14.0665 80.3409 14.0665C79.614 14.0665 79.267 14.3474 79.267 14.7687C79.267 15.19 79.5726 15.3222 80.184 15.4461L81.8857 15.793C83.5379 16.14 84.1987 16.8008 84.1987 18.0317C84.1987 19.6839 82.6705 20.8074 80.3987 20.8074C78.127 20.8074 76.6483 19.7169 76.5409 18.0565H79.11C79.1844 18.6595 79.6635 19.0148 80.44 19.0148C81.2166 19.0148 81.58 18.7669 81.58 18.3291C81.58 17.8913 81.3322 17.8169 80.6961 17.6848L79.1596 17.3626C77.5653 17.0239 76.7309 16.1895 76.7309 14.9422C76.7805 13.323 78.1683 12.2904 80.407 12.2904L80.3574 12.2822ZM93.0792 20.6091H90.51V19.0808H90.4605C90.3167 19.5906 90.0036 20.0361 89.5724 20.3439C89.1412 20.6518 88.6183 20.8036 88.0896 20.7743C87.6906 20.7873 87.2924 20.7158 86.9232 20.5643C86.5539 20.4128 86.2202 20.1849 85.9451 19.8955C85.6692 19.6061 85.4585 19.2617 85.3255 18.885C85.1925 18.5083 85.1405 18.1076 85.1735 17.7095V12.4804H87.8253V17.1395C87.8253 18.0978 88.3292 18.6182 89.1553 18.6182C89.3494 18.6167 89.5402 18.5737 89.7162 18.4921C89.8921 18.4104 90.0483 18.2919 90.1738 18.1447C90.3002 17.9975 90.3936 17.8249 90.4473 17.6387C90.5001 17.4525 90.5133 17.2569 90.4853 17.0652V12.4804H93.1287L93.0792 20.6091ZM94.3596 12.4722H96.937V14.0417H96.9948C97.1369 13.5389 97.4426 13.0975 97.8622 12.7866C98.2827 12.4757 98.794 12.3128 99.3161 12.3235C99.8407 12.2779 100.364 12.4295 100.782 12.7488C101.2 13.0681 101.485 13.5321 101.58 14.05H101.695C101.86 13.5293 102.193 13.0778 102.641 12.7656C103.089 12.4533 103.628 12.2979 104.174 12.3235C104.536 12.3097 104.898 12.3726 105.234 12.5082C105.571 12.6436 105.875 12.8488 106.127 13.1101C106.379 13.3713 106.572 13.6828 106.696 14.0241C106.819 14.3655 106.869 14.7289 106.842 15.0908V20.6174H104.174V15.7682C104.174 14.9422 103.785 14.4795 103.034 14.4795C102.867 14.4768 102.701 14.5102 102.549 14.5773C102.396 14.6444 102.26 14.7438 102.15 14.8685C102.039 14.9934 101.956 15.1405 101.908 15.3001C101.86 15.4597 101.846 15.6278 101.869 15.793V20.6174H99.3409V15.7435C99.3409 14.9174 98.9361 14.4795 98.2092 14.4795C98.0407 14.4782 97.8738 14.5129 97.7201 14.5813C97.5657 14.6498 97.4285 14.7503 97.3162 14.8763C97.2046 15.0023 97.1212 15.1507 97.0717 15.3117C97.0213 15.4727 97.0064 15.6424 97.0279 15.8095V20.6174H94.3761L94.3596 12.4722Z" fill="white"></path>
<path d="M26.6537 10.5474C26.6537 8.9032 26.1573 7.29733 25.2292 5.94012C24.3012 4.58291 22.9848 3.53762 21.4527 2.94119C19.9206 2.34474 18.2439 2.22496 16.6426 2.59752C15.0411 2.97007 13.5896 3.81761 12.478 5.0291H2.16846V26.7882H23.9358V16.6191C24.7902 15.855 25.4738 14.9193 25.9421 13.873C26.4105 12.8268 26.6529 11.6936 26.6537 10.5474ZM22.4654 10.5474C22.467 11.3352 22.2349 12.1059 21.7984 12.7618C21.3618 13.4176 20.7406 13.9293 20.0132 14.2319C19.2857 14.5345 18.4849 14.6146 17.7119 14.4619C16.939 14.3092 16.2288 13.9306 15.6711 13.3741C15.1134 12.8175 14.7334 12.1081 14.5791 11.3354C14.4248 10.5629 14.5032 9.76183 14.8043 9.0338C15.1054 8.30574 15.6157 7.68339 16.2707 7.2455C16.9257 6.80762 17.6958 6.57389 18.4837 6.57388C19.5382 6.57388 20.5498 6.99225 21.2962 7.73718C22.0428 8.48211 22.4632 9.49277 22.4654 10.5474ZM19.7476 22.6H6.35672V9.21736H10.4376C10.3588 9.65642 10.3173 10.1014 10.3137 10.5474C10.3159 12.7135 11.1773 14.7903 12.7091 16.322C14.2407 17.8537 16.3175 18.7152 18.4837 18.7174C18.9072 18.7151 19.3298 18.6792 19.7476 18.61V22.6Z" fill="white"></path>
</svg>
</g>
</g>
</svg>