<?xml version="1.0" encoding="UTF-8"?>
<svg width="128" height="30" 
viewBox="0 0 128 30" 
preserveAspectRatio="xMinYMin"
xmlns:xlink="http://www.w3.org/1999/xlink"
xmlns="http://www.w3.org/2000/svg">
<!-- Generated by PQINA - https://pqina.nl/ -->
<title></title>
<g transform="rotate(NaN 64 15) translate(64 15) scale(NaN) translate(-64 -15) translate(0 0)">
<g transform="scale(1 1) translate(0 0)">
<svg width="128" height="30" viewBox="0 0 128 30" fill="none" xmlns="http://www.w3.org/2000/svg" style="overflow: visible;">
<path d="M37.4381 19.7016C37.4381 20.3147 37.3122 20.7858 37.0605 21.115C36.8153 21.4441 36.4055 21.6087 35.8311 21.6087C35.289 21.6087 34.905 21.4441 34.6791 21.115C34.4597 20.7858 34.35 20.3147 34.35 19.7016V9.46911C34.35 8.85599 34.4597 8.38486 34.6791 8.05572C34.905 7.72657 35.289 7.562 35.8311 7.562C36.4055 7.562 36.8153 7.72657 37.0605 8.05572C37.3122 8.38486 37.4381 8.85599 37.4381 9.46911V19.7016Z" fill="white"></path>
<path d="M38.3756 16.7296C38.3756 16.0455 38.4853 15.4001 38.7048 14.7935C38.9307 14.1803 39.2662 13.6447 39.7116 13.1865C40.1633 12.7282 40.7248 12.3636 41.396 12.0926C42.0737 11.8215 42.8675 11.686 43.7775 11.686C44.6487 11.686 45.42 11.8118 46.0912 12.0635C46.7624 12.3152 47.3271 12.667 47.7852 13.1187C48.2435 13.564 48.592 14.0964 48.8308 14.716C49.0696 15.3291 49.189 16.0003 49.189 16.7296C49.189 17.4073 49.076 18.0494 48.8501 18.6561C48.6243 19.2562 48.2854 19.7855 47.8336 20.2437C47.3819 20.6954 46.8172 21.0569 46.1396 21.328C45.4619 21.5926 44.6745 21.7248 43.7775 21.7248C42.8933 21.7248 42.1124 21.599 41.4347 21.3473C40.7635 21.0892 40.1989 20.7374 39.7406 20.2921C39.2888 19.8404 38.9468 19.3112 38.7145 18.7045C38.4885 18.0914 38.3756 17.4331 38.3756 16.7296ZM41.5993 16.7296C41.5993 17.1556 41.638 17.5622 41.7155 17.9494C41.7929 18.3301 41.9156 18.6657 42.0833 18.9562C42.2576 19.2466 42.4835 19.4789 42.761 19.6532C43.0385 19.8209 43.3773 19.9049 43.7775 19.9049C44.1453 19.9049 44.4648 19.8275 44.7358 19.6725C45.0134 19.5177 45.2392 19.3014 45.4135 19.0239C45.5942 18.7465 45.7298 18.414 45.8201 18.0269C45.9104 17.6331 45.9556 17.2008 45.9556 16.7296C45.9556 16.3036 45.9137 15.9003 45.8298 15.5195C45.7523 15.1323 45.6265 14.7935 45.4522 14.503C45.278 14.2062 45.0521 13.9738 44.7746 13.806C44.5035 13.6318 44.1711 13.5447 43.7775 13.5447C43.3838 13.5447 43.0482 13.6285 42.7706 13.7964C42.4932 13.9642 42.2673 14.1932 42.093 14.4837C41.9188 14.7741 41.7929 15.1129 41.7155 15.5002C41.638 15.8874 41.5993 16.2972 41.5993 16.7296Z" fill="white"></path>
<path d="M57.1352 19.7404C56.9609 20.063 56.748 20.3373 56.4963 20.5632C56.2511 20.7891 55.9767 20.9763 55.6735 21.1247C55.3766 21.2666 55.0571 21.3731 54.715 21.4442C54.3794 21.5087 54.0342 21.541 53.6792 21.541C53.0854 21.541 52.5433 21.4345 52.0528 21.2214C51.5624 21.0085 51.1397 20.7019 50.7847 20.3018C50.4362 19.8952 50.1651 19.3983 49.9715 18.811C49.7778 18.2237 49.681 17.5525 49.681 16.7974C49.681 16.0875 49.7714 15.4227 49.9522 14.8032C50.1328 14.1836 50.3942 13.6447 50.7363 13.1865C51.0848 12.7283 51.5107 12.3669 52.0141 12.1023C52.5175 11.8377 53.0919 11.7053 53.7373 11.7053C54.473 11.7053 55.1249 11.8473 55.6928 12.1313C56.2672 12.4153 56.7609 12.88 57.174 13.5253V13.2737C57.174 12.809 57.2998 12.4605 57.5515 12.2281C57.8096 11.9893 58.1646 11.8699 58.6164 11.8699C58.8874 11.8699 59.1165 11.9151 59.3037 12.0055C59.4908 12.0894 59.6393 12.2184 59.749 12.3927C59.8588 12.5605 59.9362 12.7702 59.9813 13.022C60.033 13.2671 60.0588 13.5479 60.0588 13.8642V20.3503C60.0588 21.1376 59.9588 21.841 59.7587 22.4606C59.5651 23.0801 59.2617 23.603 58.8487 24.0289C58.4357 24.4548 57.9065 24.7775 57.261 24.997C56.6157 25.2228 55.8477 25.3358 54.9571 25.3358C54.3311 25.3358 53.776 25.3068 53.2919 25.2486C52.8144 25.1971 52.4013 25.1164 52.0528 25.0067C51.7044 24.884 51.4398 24.7485 51.259 24.6001C51.0848 24.4516 50.9977 24.258 50.9977 24.0192C50.9977 23.8837 51.017 23.7546 51.0557 23.632C51.0945 23.5094 51.1525 23.3997 51.2299 23.3029C51.3139 23.2125 51.4204 23.1383 51.5495 23.0801C51.685 23.0286 51.8495 23.0027 52.0431 23.0027C52.2497 23.0027 52.4562 23.0156 52.6627 23.0415C52.8757 23.0673 53.0952 23.0931 53.321 23.1189C53.5533 23.1512 53.7954 23.1802 54.0471 23.206C54.3052 23.2318 54.5827 23.2448 54.8796 23.2448C55.2346 23.2448 55.5508 23.2093 55.8284 23.1383C56.1058 23.0673 56.3414 22.9414 56.535 22.7607C56.7286 22.58 56.8771 22.338 56.9803 22.0346C57.0836 21.7378 57.1352 21.357 57.1352 20.8923V19.7404ZM57.1352 16.7297C57.1352 16.2585 57.0997 15.8293 57.0287 15.4421C56.9642 15.0549 56.8512 14.7258 56.6899 14.4546C56.5285 14.1772 56.3124 13.9642 56.0413 13.8157C55.7702 13.6609 55.4314 13.5834 55.0248 13.5834C54.6247 13.5834 54.2923 13.6641 54.0277 13.8254C53.7696 13.9867 53.5631 14.2095 53.4082 14.4934C53.2533 14.7774 53.1436 15.1097 53.079 15.4906C53.0209 15.8713 52.9919 16.2779 52.9919 16.7103C52.9919 17.6977 53.1661 18.4399 53.5147 18.9368C53.8631 19.4338 54.3697 19.6823 55.0345 19.6823C55.3443 19.6758 55.6251 19.6177 55.8767 19.508C56.1348 19.3918 56.3576 19.2144 56.5447 18.9756C56.7319 18.7367 56.8771 18.4334 56.9803 18.0655C57.0836 17.6977 57.1352 17.2524 57.1352 16.7297Z" fill="white"></path>
<path d="M60.9478 16.7296C60.9478 16.0455 61.0575 15.4001 61.2769 14.7935C61.5028 14.1803 61.8384 13.6447 62.2837 13.1865C62.7355 12.7282 63.2969 12.3636 63.9681 12.0926C64.6458 11.8215 65.4396 11.686 66.3496 11.686C67.2208 11.686 67.992 11.8118 68.6632 12.0635C69.3344 12.3152 69.8991 12.667 70.3574 13.1187C70.8156 13.564 71.1641 14.0964 71.4029 14.716C71.6417 15.3291 71.7611 16.0003 71.7611 16.7296C71.7611 17.4073 71.6481 18.0494 71.4223 18.6561C71.1964 19.2562 70.8576 19.7855 70.4058 20.2437C69.954 20.6954 69.3893 21.0569 68.7116 21.328C68.034 21.5926 67.2467 21.7248 66.3496 21.7248C65.4654 21.7248 64.6845 21.599 64.0068 21.3473C63.3356 21.0892 62.7709 20.7374 62.3127 20.2921C61.861 19.8404 61.5189 19.3112 61.2865 18.7045C61.0607 18.0914 60.9478 17.4331 60.9478 16.7296ZM64.1714 16.7296C64.1714 17.1556 64.2101 17.5622 64.2876 17.9494C64.365 18.3301 64.4876 18.6657 64.6555 18.9562C64.8297 19.2466 65.0555 19.4789 65.3331 19.6532C65.6106 19.8209 65.9495 19.9049 66.3496 19.9049C66.7175 19.9049 67.0369 19.8275 67.308 19.6725C67.5854 19.5177 67.8114 19.3014 67.9856 19.0239C68.1663 18.7465 68.3018 18.414 68.3922 18.0269C68.4826 17.6331 68.5278 17.2008 68.5278 16.7296C68.5278 16.3036 68.4858 15.9003 68.4019 15.5195C68.3245 15.1323 68.1986 14.7935 68.0243 14.503C67.8501 14.2062 67.6242 13.9738 67.3467 13.806C67.0757 13.6318 66.7432 13.5447 66.3496 13.5447C65.9559 13.5447 65.6203 13.6285 65.3428 13.7964C65.0653 13.9642 64.8394 14.1932 64.6651 14.4837C64.4909 14.7741 64.365 15.1129 64.2876 15.5002C64.2101 15.8874 64.1714 16.2972 64.1714 16.7296Z" fill="white"></path>
<path d="M75.9129 8.42357C75.9129 8.63655 75.8645 8.82693 75.7677 8.99474C75.6709 9.15608 75.5451 9.29157 75.3902 9.40136C75.2353 9.51106 75.0545 9.59491 74.848 9.65299C74.648 9.70462 74.4415 9.73047 74.2285 9.73047C74.0026 9.73047 73.7864 9.7014 73.5799 9.64332C73.3798 9.58525 73.2024 9.5014 73.0475 9.39161C72.8926 9.27546 72.7699 9.13672 72.6795 8.97537C72.5893 8.81403 72.5441 8.63009 72.5441 8.42357C72.5441 8.23641 72.586 8.06539 72.6699 7.9105C72.7603 7.74915 72.8796 7.6104 73.0281 7.49422C73.1765 7.37806 73.3541 7.2877 73.5606 7.22317C73.7671 7.15862 73.9929 7.12636 74.2382 7.12636C74.4512 7.12636 74.6577 7.1554 74.8578 7.21349C75.0643 7.27157 75.245 7.35547 75.3999 7.46519C75.5547 7.5749 75.6774 7.71043 75.7677 7.87177C75.8645 8.03312 75.9129 8.21705 75.9129 8.42357ZM75.7677 19.7016C75.7677 20.3147 75.6419 20.7858 75.3902 21.1149C75.1449 21.4441 74.7351 21.6087 74.1607 21.6087C73.6186 21.6087 73.2346 21.4441 73.0087 21.1149C72.7893 20.7858 72.6795 20.3147 72.6795 19.7016V13.777C72.6795 13.1639 72.7893 12.6927 73.0087 12.3636C73.2346 12.0345 73.6186 11.8699 74.1607 11.8699C74.7351 11.8699 75.1449 12.0345 75.3902 12.3636C75.6419 12.6927 75.7677 13.1639 75.7677 13.777V19.7016Z" fill="white"></path>
<path d="M80.2193 16.7103C80.2193 17.1427 80.2515 17.546 80.3161 17.9204C80.3871 18.2947 80.5032 18.6238 80.6645 18.9078C80.8324 19.1853 81.0518 19.4047 81.3229 19.5661C81.6003 19.7275 81.9424 19.8081 82.349 19.8081C82.7233 19.8081 83.0363 19.7307 83.2883 19.5758C83.546 19.4145 83.7525 19.195 83.9078 18.9175C84.0623 18.6335 84.1722 18.3011 84.2366 17.9204C84.3077 17.5396 84.3432 17.1265 84.3432 16.6813C84.3432 16.3263 84.3176 15.9649 84.2655 15.597C84.2143 15.2227 84.1177 14.8839 83.9756 14.5805C83.8335 14.2772 83.6369 14.0287 83.3849 13.8351C83.133 13.6415 82.8042 13.5447 82.3974 13.5447C81.9908 13.5447 81.6455 13.6092 81.3616 13.7383C81.084 13.8674 80.8582 14.0642 80.684 14.3288C80.5161 14.5934 80.3967 14.9258 80.3258 15.3259C80.2547 15.7196 80.2193 16.1811 80.2193 16.7103ZM80.2096 13.777C80.371 13.435 80.5775 13.1349 80.8292 12.8767C81.0808 12.6186 81.3584 12.4024 81.6617 12.2281C81.9651 12.0539 82.2813 11.9247 82.6104 11.8409C82.9463 11.7505 83.2784 11.7053 83.6072 11.7053C84.2011 11.7053 84.7372 11.8377 85.2147 12.1023C85.6922 12.3669 86.0986 12.7283 86.434 13.1865C86.776 13.6383 87.0379 14.1739 87.2188 14.7935C87.3989 15.4066 87.4898 16.0649 87.4898 16.7683C87.4898 17.4976 87.3923 18.1656 87.199 18.7723C87.0123 19.3789 86.7438 19.9017 86.3952 20.3405C86.0532 20.773 85.6402 21.1117 85.1561 21.357C84.6786 21.6023 84.1466 21.7249 83.5592 21.7249C82.8364 21.7249 82.1909 21.5571 81.623 21.2214C81.055 20.8859 80.5839 20.4148 80.2096 19.8081V23.2932C80.2096 23.9062 80.0837 24.3774 79.832 24.7065C79.5868 25.0357 79.177 25.2003 78.6026 25.2003C78.0605 25.2003 77.6764 25.0357 77.4506 24.7065C77.2312 24.3774 77.1215 23.9062 77.1215 23.2932V13.777C77.1215 13.1639 77.2312 12.6928 77.4506 12.3636C77.6764 12.0345 78.0605 11.8699 78.6026 11.8699C79.177 11.8699 79.5868 12.0345 79.832 12.3636C80.0837 12.6928 80.2096 13.1639 80.2096 13.777Z" fill="white"></path>
<path d="M90.8957 14.4644C90.8957 14.716 91.0056 14.9128 91.2245 15.0548C91.4443 15.1904 91.7474 15.3033 92.1349 15.3937C92.5025 15.4775 92.88 15.5583 93.2674 15.6357C93.6549 15.7131 94.0324 15.8035 94.4 15.9068C94.7676 16.0035 95.1129 16.1197 95.4359 16.2552C95.7581 16.3908 96.0423 16.5618 96.2876 16.7683C96.533 16.9684 96.7263 17.2137 96.8684 17.504C97.0104 17.788 97.0815 18.1301 97.0815 18.5302C97.0815 19.0336 96.9782 19.4822 96.7717 19.8758C96.5652 20.2631 96.2719 20.5922 95.8911 20.8633C95.5169 21.1343 95.0683 21.3441 94.5454 21.4925C94.0225 21.641 93.445 21.7184 92.8123 21.7248C92.2125 21.7248 91.6343 21.6862 91.0791 21.6087C90.5248 21.5377 90.0308 21.4247 89.598 21.2698C89.1725 21.1149 88.8305 20.9246 88.572 20.6987C88.3142 20.4664 88.1854 20.1953 88.1854 19.8855C88.1854 19.6144 88.2721 19.4047 88.4464 19.2562C88.6207 19.1079 88.8429 19.0336 89.1147 19.0336C89.218 19.0336 89.3402 19.0529 89.4823 19.0917C89.6244 19.1304 89.7789 19.1788 89.9466 19.2369C90.1143 19.295 90.2919 19.3595 90.4794 19.4305C90.6727 19.4951 90.8726 19.5531 91.0791 19.6048C91.3377 19.6758 91.602 19.7339 91.873 19.7791C92.1506 19.8177 92.4347 19.8371 92.7255 19.8371C92.9056 19.8371 93.0832 19.8209 93.2575 19.7887C93.4318 19.75 93.5871 19.6951 93.7226 19.6242C93.8647 19.5467 93.9804 19.4499 94.0712 19.3337C94.1613 19.2176 94.2158 19.0756 94.2356 18.9078C94.2546 18.869 94.2711 18.8303 94.2835 18.7916C94.2967 18.7529 94.3034 18.7077 94.3034 18.6561C94.3034 18.4753 94.2191 18.314 94.0514 18.172C93.8903 18.0301 93.6607 17.9171 93.3641 17.8332C92.8668 17.7171 92.3926 17.6106 91.9407 17.5138C91.4897 17.417 91.0701 17.3137 90.6826 17.204C90.3018 17.0943 89.9532 16.9684 89.6368 16.8264C89.327 16.6845 89.0627 16.5102 88.8429 16.3036C88.6306 16.0971 88.4621 15.8486 88.3398 15.5583C88.2234 15.2678 88.1655 14.9161 88.1655 14.503C88.1655 14.0578 88.2655 13.6608 88.4654 13.3123C88.6719 12.9573 88.966 12.6605 89.3468 12.4217C89.7277 12.1829 90.1886 12.0022 90.7314 11.8796C91.2733 11.7505 91.8862 11.686 92.5702 11.686C93.7961 11.686 94.7288 11.8344 95.3682 12.1312C96.0134 12.4217 96.3364 12.8024 96.3364 13.2736C96.3364 13.5382 96.2488 13.7415 96.0745 13.8834C95.9002 14.019 95.6904 14.0867 95.4458 14.0867C95.3161 14.0867 95.1807 14.0642 95.0386 14.019C94.9031 13.9674 94.7387 13.9125 94.5454 13.8545C94.3513 13.7899 94.1191 13.7351 93.8482 13.6899C93.5838 13.6383 93.2542 13.6124 92.861 13.6124C92.5636 13.6124 92.2927 13.6253 92.0473 13.6512C91.8086 13.6769 91.602 13.7221 91.4277 13.7866C91.26 13.8512 91.1279 13.9383 91.0312 14.0481C90.9404 14.1578 90.8957 14.2965 90.8957 14.4644Z" fill="white"></path>
<path d="M101.01 18.0171C101.01 18.3205 101.049 18.5851 101.127 18.811C101.21 19.0369 101.323 19.2273 101.465 19.3822C101.608 19.5306 101.772 19.6435 101.959 19.721C102.153 19.792 102.359 19.8275 102.578 19.8275C102.837 19.8275 103.085 19.7888 103.324 19.7113C103.563 19.6339 103.773 19.5144 103.954 19.3531C104.14 19.1918 104.289 18.9885 104.399 18.7432C104.508 18.498 104.563 18.2108 104.563 17.8817V13.777C104.563 13.1639 104.673 12.6928 104.892 12.3637C105.118 12.0345 105.503 11.8699 106.044 11.8699C106.619 11.8699 107.028 12.0345 107.274 12.3637C107.526 12.6928 107.651 13.1639 107.651 13.777V19.7016C107.651 20.3147 107.526 20.7859 107.274 21.115C107.028 21.4442 106.619 21.6087 106.044 21.6087C105.503 21.6087 105.118 21.4442 104.892 21.115C104.673 20.7859 104.563 20.3147 104.563 19.7016C104.428 19.9985 104.25 20.2696 104.03 20.5148C103.817 20.7601 103.566 20.9731 103.275 21.1537C102.991 21.328 102.676 21.4635 102.327 21.5603C101.985 21.6571 101.613 21.7055 101.213 21.7055C100.781 21.7055 100.365 21.6313 99.9645 21.4829C99.5712 21.328 99.2226 21.1021 98.9194 20.8052C98.6163 20.5019 98.3742 20.1276 98.1933 19.6823C98.0124 19.2369 97.9224 18.7174 97.9224 18.1236V13.777C97.9224 13.1639 98.0322 12.6928 98.2511 12.3637C98.4775 12.0345 98.8608 11.8699 99.4035 11.8699C99.9777 11.8699 100.387 12.0345 100.633 12.3637C100.885 12.6928 101.01 13.1639 101.01 13.777V18.0171Z" fill="white"></path>
<path d="M109.053 13.777C109.053 13.1639 109.163 12.6928 109.382 12.3636C109.608 12.0345 109.992 11.8699 110.534 11.8699C111.109 11.8699 111.519 12.0345 111.764 12.3636C112.015 12.6928 112.142 13.1639 112.142 13.777C112.27 13.4672 112.445 13.1865 112.665 12.9348C112.89 12.6767 113.145 12.4572 113.429 12.2765C113.719 12.0958 114.033 11.957 114.368 11.8602C114.703 11.757 115.052 11.7053 115.414 11.7053C115.749 11.7053 116.078 11.7505 116.401 11.8409C116.73 11.9247 117.034 12.0635 117.311 12.2572C117.595 12.4443 117.843 12.6831 118.056 12.9735C118.27 13.2639 118.434 13.6124 118.55 14.019C118.75 13.5867 118.986 13.222 119.257 12.9251C119.528 12.6282 119.822 12.3894 120.137 12.2088C120.454 12.028 120.783 11.899 121.125 11.8215C121.474 11.7441 121.822 11.7053 122.17 11.7053C122.583 11.7053 122.977 11.7796 123.352 11.928C123.732 12.0764 124.065 12.3024 124.349 12.6057C124.639 12.9025 124.868 13.2801 125.036 13.7383C125.21 14.19 125.297 14.7193 125.297 15.3259V19.7016C125.297 20.3147 125.171 20.7859 124.92 21.115C124.675 21.4442 124.264 21.6087 123.69 21.6087C123.148 21.6087 122.764 21.4442 122.539 21.115C122.319 20.7859 122.209 20.3147 122.209 19.7016V15.4615C122.209 15.171 122.17 14.9129 122.093 14.687C122.016 14.4546 121.906 14.2611 121.764 14.1062C121.628 13.9449 121.467 13.8254 121.28 13.748C121.093 13.6641 120.892 13.6221 120.68 13.6221C120.415 13.6221 120.164 13.6641 119.925 13.748C119.686 13.8319 119.476 13.961 119.296 14.1352C119.121 14.3095 118.979 14.5321 118.869 14.8032C118.766 15.0742 118.715 15.4002 118.715 15.7809V19.7016C118.715 20.3147 118.588 20.7859 118.337 21.115C118.092 21.4442 117.682 21.6087 117.107 21.6087C116.565 21.6087 116.181 21.4442 115.956 21.115C115.736 20.7859 115.626 20.3147 115.626 19.7016V15.6454C115.626 14.9807 115.487 14.4773 115.211 14.1352C114.939 13.7932 114.568 13.6221 114.097 13.6221C113.819 13.6221 113.561 13.6673 113.322 13.7577C113.083 13.848 112.877 13.9803 112.703 14.1546C112.528 14.3288 112.389 14.545 112.286 14.8032C112.19 15.0613 112.142 15.3582 112.142 15.6938V19.7016C112.142 20.3147 112.015 20.7859 111.764 21.115C111.519 21.4442 111.109 21.6087 110.534 21.6087C109.992 21.6087 109.608 21.4442 109.382 21.115C109.163 20.7859 109.053 20.3147 109.053 19.7016V13.777Z" fill="white"></path>
<path d="M14.2174 19.9565C11.48 19.9565 9.26086 17.7374 9.26086 15C9.26086 12.2626 11.48 10.0435 14.2174 10.0435C16.9548 10.0435 19.1739 12.2626 19.1739 15C19.1739 17.7374 16.9548 19.9565 14.2174 19.9565Z" fill="white"></path>
<path d="M4.61503 16.6931C3.17867 16.9464 2.19412 18.3339 2.74549 19.6842C3.51527 21.5694 4.74336 23.249 6.33548 24.5615C8.61211 26.4381 11.4836 27.4409 14.4335 27.3894C17.3835 27.3379 20.2183 26.2355 22.4281 24.2805C23.9734 22.9133 25.1421 21.1919 25.8457 19.281C26.3496 17.9123 25.3172 16.56 23.8728 16.357C22.4286 16.154 21.1318 17.2053 20.4184 18.4775C20.0317 19.167 19.5297 19.7926 18.9283 20.3247C17.6604 21.4465 16.0339 22.0789 14.3414 22.1085C12.6489 22.138 11.0013 21.5627 9.69511 20.4859C9.07546 19.9751 8.55197 19.3674 8.14142 18.6918C7.38407 17.4453 6.05138 16.4399 4.61503 16.6931Z" fill="white"></path>
<path d="M26.5128 16.5485C26.5761 16.0412 26.6087 15.5244 26.6087 15C26.6087 8.15648 21.0609 2.6087 14.2174 2.6087C7.37383 2.6087 1.82605 8.15648 1.82605 15C1.82605 15.673 1.8797 16.3335 1.98297 16.9774C2.55213 16.1982 3.44044 15.642 4.39994 15.4729C5.43807 15.2898 6.38157 15.5416 7.17932 16.0122C7.13219 15.6816 7.1078 15.3437 7.1078 15C7.1078 11.0735 10.2909 7.89046 14.2174 7.89046C18.1438 7.89046 21.3269 11.0735 21.3269 15C21.3269 15.2589 21.313 15.5146 21.2861 15.7663C22.067 15.2679 23.0013 14.9832 24.0454 15.13C25.0099 15.2655 25.9168 15.7901 26.5128 16.5485Z" fill="white"></path>
</svg>
</g>
</g>
</svg>