<?xml version="1.0" encoding="UTF-8"?>
<svg width="112" height="30" 
viewBox="0 0 112 30" 
preserveAspectRatio="xMinYMin"
xmlns:xlink="http://www.w3.org/1999/xlink"
xmlns="http://www.w3.org/2000/svg">
<!-- Generated by PQINA - https://pqina.nl/ -->
<title></title>
<g transform="rotate(NaN 56 15) translate(56 15) scale(NaN) translate(-56 -15) translate(0 0)">
<g transform="scale(1 1) translate(0 0)">
<svg width="112" height="30" viewBox="0 0 112 30" fill="none" xmlns="http://www.w3.org/2000/svg" style="overflow: visible;">
<path d="M13.1542 6.45003V2.93916H2.08459V27.0609H13.1542V23.55C10.8866 23.55 8.71179 22.6492 7.10839 21.0458C5.50496 19.4423 4.60416 17.2676 4.60416 15C4.60416 12.7324 5.50496 10.5577 7.10839 8.95427C8.71179 7.35084 10.8866 6.45003 13.1542 6.45003Z" fill="white"></path>
<path d="M13.1545 6.45003V23.55C15.4221 23.55 17.5969 22.6492 19.2003 21.0458C20.8038 19.4423 21.7045 17.2676 21.7045 15C21.7045 12.7324 20.8038 10.5577 19.2003 8.95427C17.5969 7.35083 15.4221 6.45003 13.1545 6.45003Z" fill="white"></path>
<path d="M27.9164 8.59784H30.3946V20.5348H27.9164V8.59784Z" fill="white"></path>
<path d="M31.7826 16.4457C31.7826 15.5869 32.0376 14.7474 32.5153 14.0337C32.9929 13.3199 33.6717 12.764 34.4657 12.4365C35.2596 12.109 36.1329 12.0246 36.9748 12.194C37.8168 12.3633 38.5895 12.7788 39.195 13.3878C39.8005 13.9969 40.2117 14.7719 40.3762 15.6149C40.5407 16.4578 40.4513 17.3306 40.1192 18.1226C39.7872 18.9146 39.2275 19.5902 38.511 20.0638C37.7945 20.5374 36.9536 20.7875 36.0948 20.7826C35.5252 20.7871 34.9604 20.6778 34.4336 20.461C33.9068 20.2443 33.4285 19.9246 33.0269 19.5208C32.6252 19.1168 32.3083 18.6367 32.0946 18.1087C31.881 17.5806 31.7749 17.0152 31.7826 16.4457ZM37.9948 16.4457C37.985 16.0754 37.8663 15.7162 37.6535 15.4131C37.4407 15.11 37.1433 14.8763 36.7984 14.7413C36.4535 14.6063 36.0765 14.576 35.7145 14.6542C35.3524 14.7324 35.0215 14.9155 34.763 15.1808C34.5045 15.4461 34.3299 15.7817 34.2612 16.1456C34.1925 16.5096 34.2325 16.8857 34.3764 17.227C34.5204 17.5682 34.7617 17.8596 35.0703 18.0644C35.3788 18.2692 35.7409 18.3785 36.1113 18.3787C36.3635 18.3837 36.614 18.3365 36.8471 18.2402C37.0802 18.1439 37.291 18.0006 37.4662 17.8192C37.6414 17.6378 37.7773 17.4221 37.8654 17.1858C37.9536 16.9495 37.992 16.6975 37.9783 16.4457H37.9948Z" fill="white"></path>
<path d="M50.2125 12.3565V20.13C50.2125 22.8726 48.0646 24.0374 45.892 24.0374C45.1257 24.1002 44.357 23.948 43.6726 23.5977C42.9881 23.2475 42.415 22.7131 42.0177 22.0548L44.1077 20.8487C44.277 21.1902 44.5464 21.4719 44.88 21.6564C45.2136 21.8408 45.5954 21.9193 45.9746 21.8813C46.2163 21.911 46.4615 21.8871 46.6927 21.8111C46.924 21.735 47.1355 21.6089 47.3123 21.4415C47.4892 21.2741 47.6268 21.0698 47.7155 20.8431C47.8041 20.6164 47.8415 20.3729 47.8251 20.13V19.3783C47.5367 19.7279 47.1707 20.0055 46.7564 20.1891C46.3419 20.3726 45.8905 20.457 45.4377 20.4356C44.3422 20.4356 43.2917 20.0005 42.5171 19.2258C41.7424 18.4513 41.3073 17.4007 41.3073 16.3052C41.3073 15.2097 41.7424 14.1592 42.5171 13.3846C43.2917 12.61 44.3422 12.1748 45.4377 12.1748C45.8905 12.1534 46.3419 12.2378 46.7564 12.4214C47.1707 12.6049 47.5367 12.8825 47.8251 13.2322V12.4061L50.2125 12.3565ZM47.8251 16.2804C47.8415 15.8852 47.7394 15.4941 47.5318 15.1574C47.3242 14.8206 47.0207 14.5537 46.6601 14.3909C46.2996 14.2281 45.8987 14.1769 45.5088 14.2438C45.119 14.3107 44.758 14.4927 44.4724 14.7664C44.1868 15.0401 43.9896 15.393 43.9062 15.7797C43.8228 16.1663 43.8569 16.5691 44.0042 16.9362C44.1516 17.3033 44.4053 17.6179 44.7329 17.8397C45.0605 18.0614 45.4469 18.1801 45.8425 18.1804C46.1006 18.199 46.3598 18.1632 46.6031 18.0755C46.8466 17.9877 47.069 17.8498 47.2557 17.6707C47.4426 17.4917 47.5898 17.2754 47.6879 17.036C47.7859 16.7965 47.8327 16.5391 47.8251 16.2804Z" fill="white"></path>
<path d="M51.6086 16.4457C51.6086 15.5875 51.8632 14.7487 52.3401 14.0353C52.817 13.3219 53.4948 12.766 54.2877 12.4381C55.0807 12.11 55.9531 12.0246 56.7947 12.1926C57.6362 12.3607 58.4089 12.7745 59.0152 13.3819C59.6214 13.9893 60.0337 14.7629 60.2001 15.6046C60.3666 16.4465 60.2795 17.3188 59.95 18.1111C59.6205 18.9035 59.0633 19.5802 58.349 20.0558C57.6347 20.5313 56.7954 20.7843 55.9373 20.7826C55.3666 20.7882 54.8005 20.6797 54.2723 20.4636C53.7441 20.2475 53.2643 19.9281 52.8612 19.5242C52.4579 19.1202 52.1395 18.6398 51.9244 18.1112C51.7093 17.5826 51.602 17.0163 51.6086 16.4457ZM57.8207 16.4457C57.811 16.0751 57.692 15.7156 57.4789 15.4122C57.2658 15.109 56.9678 14.8753 56.6224 14.7405C56.277 14.6058 55.8996 14.576 55.5373 14.6549C55.1751 14.7337 54.8442 14.9177 54.586 15.1838C54.3279 15.4499 54.154 15.7863 54.0862 16.1508C54.0184 16.5152 54.0596 16.8916 54.2048 17.2327C54.3499 17.5739 54.5926 17.8646 54.9023 18.0684C55.2119 18.2722 55.5748 18.3802 55.9455 18.3787C56.1977 18.3837 56.4482 18.3365 56.6813 18.2402C56.9144 18.1439 57.1252 18.0006 57.3004 17.8192C57.4756 17.6378 57.6115 17.4221 57.6996 17.1858C57.7878 16.9495 57.8262 16.6975 57.8125 16.4457H57.8207Z" fill="white"></path>
<path d="M61.4144 10.1674C61.4144 9.87661 61.5007 9.59228 61.6623 9.35048C61.8238 9.10865 62.0535 8.92019 62.3221 8.80889C62.5909 8.6976 62.8865 8.66848 63.1718 8.72521C63.4569 8.78195 63.719 8.922 63.9247 9.12764C64.1303 9.3333 64.2703 9.59533 64.327 9.8805C64.3838 10.1657 64.3546 10.4614 64.2434 10.7301C64.1321 10.9988 63.9436 11.2284 63.7018 11.39C63.46 11.5516 63.1757 11.6378 62.8849 11.6378C62.4962 11.6335 62.1247 11.4772 61.8499 11.2024C61.575 10.9276 61.4187 10.5561 61.4144 10.1674ZM61.654 12.3565H64.1323V20.5348H61.654V12.3565Z" fill="white"></path>
<path d="M74.7391 16.4456C74.7669 16.9895 74.6868 17.5336 74.5035 18.0464C74.3203 18.5593 74.0374 19.0308 73.6712 19.4339C73.3049 19.837 72.8626 20.1636 72.3696 20.3951C71.8766 20.6266 71.3427 20.7582 70.7987 20.7826C70.337 20.8133 69.8743 20.7394 69.4452 20.5663C69.0161 20.3932 68.6316 20.1255 68.3204 19.783V23.8226H65.8422V12.3565H68.3204V13.1248C68.632 12.7834 69.0168 12.5169 69.446 12.3452C69.8751 12.1735 70.3376 12.1011 70.7987 12.1335C71.3406 12.1578 71.8723 12.2888 72.3636 12.5187C72.8549 12.7486 73.2961 13.0731 73.662 13.4735C74.0279 13.8739 74.3114 14.3424 74.4962 14.8525C74.681 15.3624 74.7636 15.9037 74.7391 16.4456ZM72.2609 16.4456C72.2511 16.0619 72.1283 15.6897 71.9079 15.3755C71.6875 15.0614 71.3792 14.8192 71.0217 14.6795C70.6643 14.5397 70.2735 14.5086 69.8984 14.59C69.5234 14.6714 69.1807 14.8617 68.9133 15.137C68.6459 15.4124 68.4657 15.7605 68.3954 16.1378C68.325 16.5151 68.3676 16.9048 68.5178 17.258C68.668 17.6112 68.919 17.9122 69.2395 18.1233C69.56 18.3345 69.9358 18.4463 70.3196 18.4448C70.5824 18.4559 70.8447 18.4114 71.0891 18.3141C71.3337 18.2168 71.5548 18.0689 71.7381 17.8801C71.9214 17.6914 72.0627 17.4659 72.1528 17.2188C72.2429 16.9715 72.2797 16.7081 72.2609 16.4456Z" fill="white"></path>
<path d="M82.2814 18.0813C82.2814 19.9648 80.6292 20.7661 78.8779 20.7661C78.1636 20.8304 77.4465 20.6789 76.8191 20.3314C76.1918 19.9839 75.6831 19.4562 75.3588 18.8165L77.4901 17.6104C77.5745 17.9052 77.7576 18.162 78.0087 18.338C78.2598 18.5139 78.5637 18.5983 78.8696 18.577C79.4562 18.577 79.7535 18.3952 79.7535 18.0648C79.7535 17.1643 75.7305 17.6435 75.7305 14.81C75.7305 13.0257 77.234 12.1335 78.9357 12.1335C79.5825 12.1045 80.2252 12.2513 80.7953 12.5582C81.3655 12.8651 81.8419 13.3206 82.174 13.8765L80.0427 15C79.9485 14.7869 79.7947 14.6056 79.5997 14.4781C79.4047 14.3505 79.1769 14.2822 78.944 14.2813C78.5144 14.2813 78.2583 14.4465 78.2583 14.7357C78.2583 15.6774 82.2814 15.0578 82.2814 18.0813Z" fill="white"></path>
<path d="M91.261 12.3566V20.5348H88.7828V19.7666C88.5011 20.1067 88.1434 20.3757 87.7394 20.5523C87.3346 20.7288 86.8943 20.8077 86.4532 20.7827C84.801 20.7827 83.3884 19.6013 83.3884 17.3957V12.3566H85.8667V17.024C85.8469 17.2191 85.87 17.4161 85.9344 17.6015C85.9989 17.7868 86.1021 17.9559 86.2376 18.0974C86.3739 18.2387 86.5391 18.3489 86.7217 18.4204C86.9043 18.4918 87.1 18.5226 87.2958 18.5109C88.188 18.5109 88.8158 17.9822 88.8158 16.8587V12.3566H91.261Z" fill="white"></path>
<path d="M105.304 15.5121V20.5347H102.826V15.7269C102.826 14.9008 102.438 14.3887 101.653 14.3887C100.868 14.3887 100.373 14.9587 100.373 15.9252V20.5347H97.8944V15.7269C97.8944 14.9008 97.5061 14.3887 96.7213 14.3887C95.9366 14.3887 95.4409 14.9587 95.4409 15.9252V20.5347H92.9626V12.3565H95.4409V13.1082C95.6978 12.7761 96.0324 12.5131 96.4165 12.3429C96.7998 12.1728 97.2203 12.1007 97.6383 12.1334C98.0571 12.1115 98.4751 12.1991 98.8502 12.3874C99.2252 12.5756 99.5449 12.8582 99.7779 13.2074C100.05 12.8426 100.411 12.5528 100.825 12.365C101.239 12.1771 101.695 12.0975 102.149 12.1334C104.082 12.1334 105.304 13.4717 105.304 15.5121Z" fill="white"></path>
<path d="M107.386 12.3069C108.39 12.3069 109.203 11.4932 109.203 10.4895C109.203 9.48585 108.39 8.67215 107.386 8.67215C106.382 8.67215 105.569 9.48585 105.569 10.4895C105.569 11.4932 106.382 12.3069 107.386 12.3069Z" fill="white"></path>
</svg>
</g>
</g>
</svg>